<svg width="1272" height="300" viewBox="0 0 1272 300" fill="none" xmlns="http://www.w3.org/2000/svg">
<path d="M167.332 139.037C187.863 128.981 198.338 110.964 198.338 80.796C198.338 26.745 164.818 3.69998 99.454 3.69998H0.57V297H112.024C179.064 297 219.288 271.022 219.288 208.591C219.288 165.853 200.433 146.998 167.332 139.037ZM42.051 38.058H99.454C138.84 38.058 161.047 48.533 161.047 80.796C161.047 113.059 138.84 126.048 99.454 126.048H42.051V38.058ZM112.024 262.642H42.051V158.73H112.024C155.6 158.73 177.807 172.138 177.807 208.591C177.807 245.044 155.6 262.642 112.024 262.642ZM521.898 150.35C521.898 48.952 459.048 1.60498 381.952 0.766993C304.856 -0.0710214 242.006 48.533 242.006 150.35C242.006 251.748 304.856 299.933 381.952 299.933C459.048 299.933 521.898 251.748 521.898 150.35ZM477.903 150.35C477.903 231.217 436.003 264.737 381.952 264.737C327.901 264.737 286.001 231.217 286.001 150.35C286.001 69.483 327.901 35.125 381.952 35.963C435.584 36.382 477.903 69.064 477.903 150.35ZM824.38 150.35C824.38 48.952 761.53 1.60498 684.434 0.766993C607.338 -0.0710214 544.488 48.533 544.488 150.35C544.488 251.748 607.338 299.933 684.434 299.933C761.53 299.933 824.38 251.748 824.38 150.35ZM780.385 150.35C780.385 231.217 738.485 264.737 684.434 264.737C630.383 264.737 588.483 231.217 588.483 150.35C588.483 69.483 630.383 35.125 684.434 35.963C738.066 36.382 780.385 69.064 780.385 150.35ZM1051.93 4.11897H1002.9L929.578 114.735L855.415 4.11897H806.392L908.628 152.445V297H950.528V152.445L1051.93 4.11897ZM1197.24 216.971L1225.74 297H1271.41L1160.79 3.69998H1119.31L1008.69 297H1054.36L1082.86 216.971H1197.24ZM1184.67 181.775H1095.85L1140.26 57.751L1184.67 181.775Z" fill="black"/>
</svg>
